<svg width="29" height="29" viewBox="0 0 29 29" fill="none" xmlns="http://www.w3.org/2000/svg">
<path d="M21.3722 8.53878C22.1332 9.24548 22.5138 9.59882 22.7152 10.0608C22.9167 10.5228 22.9167 11.0421 22.9167 12.0806V19.6396C22.9167 21.9181 22.9167 23.0573 22.2088 23.7651C21.501 24.473 20.3618 24.473 18.0833 24.473H16.875H12.0417H10.8333C8.55488 24.473 7.41565 24.473 6.70783 23.7651C6 23.0573 6 21.9181 6 19.6396V12.0806C6 11.0421 6 10.5228 6.20145 10.0608C6.40292 9.59882 6.78344 9.24548 7.54449 8.53878L10.2292 6.04587L11.1695 5.17272C12.7293 3.72424 13.5093 3 14.4583 3C15.4074 3 16.1873 3.72424 17.7472 5.17272L18.6875 6.04587L21.3722 8.53878Z" stroke="#858AD4" stroke-width="3" stroke-linejoin="round"/>
<path d="M12.0416 24.473V19.6396C12.0416 18.3049 13.1236 17.223 14.4583 17.223C15.793 17.223 16.875 18.3049 16.875 19.6396V24.473" stroke="#858AD4" stroke-width="3" stroke-linecap="round" stroke-linejoin="round"/>
</svg>
