<svg width="29" height="29" viewBox="0 0 29 29" fill="none" xmlns="http://www.w3.org/2000/svg">
<path d="M21.9675 9.71417L22.5276 9.15418C23.4553 8.22636 24.9597 8.22636 25.8875 9.15418C26.8154 10.082 26.8154 11.5863 25.8875 12.5141L25.3275 13.0741M21.9675 9.71417C21.9675 9.71417 22.0376 10.9041 23.0875 11.9541C24.1376 13.0041 25.3275 13.0741 25.3275 13.0741M21.9675 9.71417L16.8193 14.8624C16.4706 15.2111 16.2962 15.3854 16.1463 15.5777C15.9695 15.8045 15.8178 16.0499 15.6941 16.3095C15.5892 16.5296 15.5112 16.7634 15.3553 17.2313L14.856 18.7291L14.6944 19.2137M25.3275 13.0741L20.1793 18.2224C19.8306 18.5711 19.6562 18.7455 19.464 18.8954C19.2372 19.0722 18.9918 19.2238 18.7322 19.3476C18.512 19.4525 18.2782 19.5305 17.8104 19.6864L16.3125 20.1857L15.828 20.3472M14.6944 19.2137L14.5329 19.6983C14.4562 19.9285 14.5161 20.1824 14.6877 20.354C14.8593 20.5256 15.1131 20.5855 15.3433 20.5088L15.828 20.3472M14.6944 19.2137L15.828 20.3472" stroke="white" stroke-width="2"/>
<path d="M9 15H12.0208" stroke="white" stroke-width="3" stroke-linecap="round"/>
<path d="M9 10H16.8542" stroke="white" stroke-width="3" stroke-linecap="round"/>
<path d="M9 20H10.8125" stroke="white" stroke-width="3" stroke-linecap="round"/>
<path d="M23.9593 3.8323C22.5438 2.41666 20.2652 2.41666 15.7083 2.41666H13.2917C8.73475 2.41666 6.45631 2.41666 5.04065 3.8323C3.625 5.24796 3.625 7.52641 3.625 12.0833V16.9167C3.625 21.4735 3.625 23.7521 5.04065 25.1676C6.45631 26.5833 8.73475 26.5833 13.2917 26.5833H15.7083C20.2652 26.5833 22.5438 26.5833 23.9593 25.1676C25.0989 24.0281 25.3211 22.3295 25.3645 19.3333" stroke="white" stroke-width="3" stroke-linecap="round"/>
</svg>
