<svg width="34" height="34" viewBox="0 0 34 34" fill="none" xmlns="http://www.w3.org/2000/svg">
<path d="M24.5561 33.3314C23.7857 33.3309 23.0203 33.2062 22.2896 32.962C17.1868 31.2526 12.549 28.3855 8.73917 24.5854C4.9382 20.7772 2.0709 16.1408 0.36198 11.0394C-0.0901903 9.69672 -0.129706 8.2494 0.248527 6.88407C0.62676 5.51873 1.4054 4.29796 2.48405 3.37917L5.12276 1.11873C5.59712 0.712172 6.14848 0.40524 6.74399 0.216226C7.33951 0.0272113 7.96699 -0.0400172 8.58904 0.0185461C9.21109 0.0771094 9.81499 0.260266 10.3647 0.557102C10.9145 0.853938 11.3989 1.25838 11.789 1.74632L15.1373 5.93535C15.6724 6.60678 15.9875 7.42668 16.04 8.28354C16.0924 9.14039 15.8795 9.99259 15.4304 10.7242L13.9027 13.2026C13.7384 13.4685 13.6687 13.782 13.7047 14.0924C13.7407 14.4029 13.8805 14.6921 14.1013 14.9132L18.4066 19.2175C18.6275 19.4382 18.9164 19.5779 19.2266 19.6142C19.5368 19.6505 19.8502 19.5812 20.1162 19.4175L22.5965 17.8901C23.3281 17.4403 24.1806 17.227 25.0378 17.2794C25.8951 17.3319 26.7153 17.6474 27.3865 18.1831L31.5765 21.5349C32.0644 21.925 32.4687 22.4093 32.7655 22.9589C33.0623 23.5086 33.2455 24.1123 33.304 24.7341C33.3626 25.356 33.2954 25.9833 33.1065 26.5786C32.9175 27.174 32.6107 27.7252 32.2042 28.1996L29.9433 30.8377C29.2789 31.6179 28.4533 32.2449 27.5233 32.6754C26.5933 33.1059 25.581 33.3297 24.5561 33.3314ZM8.15033 2.77657C7.70296 2.77627 7.27032 2.93638 6.93097 3.22783L4.29087 5.48827C3.63288 6.04862 3.15781 6.79313 2.92687 7.62586C2.69593 8.45859 2.7197 9.34139 2.99513 10.1605C4.56829 14.8533 7.20638 19.1184 10.7029 22.6221C14.2079 26.1175 18.4745 28.7545 23.1687 30.3267C23.9879 30.6022 24.8708 30.6262 25.7037 30.3956C26.5366 30.1649 27.2814 29.6903 27.842 29.0327L30.1016 26.3946C30.2655 26.2033 30.3892 25.9811 30.4654 25.741C30.5415 25.5009 30.5686 25.248 30.5448 24.9973C30.5211 24.7465 30.4471 24.5032 30.3273 24.2816C30.2075 24.0601 30.0443 23.865 29.8474 23.7079L25.6574 20.3561C25.4338 20.1772 25.1602 20.0718 24.8743 20.0544C24.5884 20.037 24.3041 20.1084 24.0603 20.2589L21.5813 21.7862C20.7842 22.2812 19.8428 22.4914 18.9107 22.3825C17.9787 22.2735 17.1111 21.8519 16.4497 21.1864L12.1445 16.8821C11.4778 16.22 11.0555 15.3514 10.9465 14.4182C10.8375 13.4851 11.0484 12.5426 11.5445 11.7447L13.0722 9.26631C13.2227 9.02263 13.2941 8.73839 13.2767 8.45253C13.2593 8.16668 13.1539 7.8932 12.975 7.66956L9.61689 3.48192C9.4415 3.26135 9.21846 3.08332 8.96448 2.96117C8.7105 2.83902 8.43217 2.77591 8.15033 2.77657Z" fill="#626DFF"/>
</svg>
