<svg width="36" height="24" viewBox="0 0 36 24" fill="none" xmlns="http://www.w3.org/2000/svg">
<path d="M34.6983 1.64188C34.4564 1.51779 34.185 1.46278 33.9139 1.48287C33.6427 1.50296 33.3824 1.59739 33.1614 1.75577L25.1458 7.48015V2.95833C25.1458 2.17373 24.8342 1.42127 24.2794 0.866476C23.7246 0.311681 22.9721 0 22.1875 0H2.95833C2.17373 0 1.42127 0.311681 0.866476 0.866476C0.311681 1.42127 0 2.17373 0 2.95833L0 20.7083C0 21.4929 0.311681 22.2454 0.866476 22.8002C1.42127 23.355 2.17373 23.6667 2.95833 23.6667H22.1875C22.9721 23.6667 23.7246 23.355 24.2794 22.8002C24.8342 22.2454 25.1458 21.4929 25.1458 20.7083V16.1865L33.1614 21.9109C33.4115 22.0915 33.7124 22.1883 34.0208 22.1875C34.2563 22.1869 34.4883 22.1312 34.6983 22.0248C34.94 21.9002 35.1427 21.7115 35.2842 21.4792C35.4256 21.247 35.5003 20.9803 35.5 20.7083V2.95833C35.5003 2.68641 35.4256 2.41967 35.2842 2.18743C35.1427 1.95518 34.94 1.76642 34.6983 1.64188ZM2.95833 20.7083V2.95833H22.1875V20.7083H2.95833ZM32.5417 17.8343L25.1458 12.5507V11.1159L32.5417 5.83235V17.8343Z" fill="#626DFF"/>
</svg>
