<svg width="40" height="40" viewBox="0 0 40 40" fill="none" xmlns="http://www.w3.org/2000/svg">
<g clip-path="url(#clip0_103_265)">
<path d="M36.4785 9.94676C36.4049 9.84803 36.3125 9.76478 36.2067 9.70176C36.1009 9.63874 35.9837 9.59719 35.8618 9.57949C35.7399 9.56179 35.6157 9.56828 35.4963 9.59859C35.377 9.6289 35.2647 9.68243 35.166 9.75614L20.0442 21.0436C19.9901 21.0842 19.9243 21.1061 19.8567 21.1061C19.7891 21.1061 19.7233 21.0842 19.6692 21.0436L4.84417 9.70614C4.7463 9.63145 4.63467 9.57677 4.51566 9.54522C4.39665 9.51367 4.2726 9.50587 4.15057 9.52227C4.02855 9.53866 3.91095 9.57893 3.8045 9.64077C3.69804 9.70262 3.6048 9.78482 3.53011 9.8827C3.45542 9.98057 3.40074 10.0922 3.36919 10.2112C3.33764 10.3302 3.32985 10.4543 3.34624 10.5763C3.36264 10.6983 3.4029 10.8159 3.46475 10.9224C3.52659 11.0288 3.6088 11.1221 3.70667 11.1968L15.3629 20.1124L3.8348 28.7999C3.73549 28.874 3.65174 28.9669 3.58833 29.0733C3.52492 29.1798 3.4831 29.2976 3.46526 29.4202C3.44741 29.5428 3.45389 29.6678 3.48432 29.7879C3.51475 29.908 3.56854 30.0209 3.64261 30.1202C3.71668 30.2195 3.80959 30.3033 3.91603 30.3667C4.02247 30.4301 4.14036 30.4719 4.26296 30.4897C4.38557 30.5076 4.51048 30.5011 4.63058 30.4707C4.75068 30.4402 4.86361 30.3865 4.96292 30.3124L16.9098 21.2936L18.5285 22.5436C18.906 22.8326 19.3673 22.9907 19.8426 22.9941C20.3179 22.9974 20.7814 22.8459 21.1629 22.5624L22.8629 21.2936L34.9504 30.3124C35.0491 30.3861 35.1614 30.4396 35.2807 30.4698C35.4001 30.5001 35.5243 30.5066 35.6462 30.4889C35.768 30.4712 35.8852 30.4297 35.9911 30.3667C36.0969 30.3037 36.1893 30.2205 36.2629 30.1218C36.3366 30.0231 36.3901 29.9108 36.4204 29.7915C36.4507 29.6721 36.4571 29.5479 36.4394 29.426C36.4217 29.3042 36.3802 29.187 36.3172 29.0811C36.2542 28.9753 36.171 28.8829 36.0723 28.8093L24.4285 20.1093L36.2879 11.2499C36.4846 11.1013 36.6149 10.8813 36.6506 10.6374C36.6863 10.3935 36.6245 10.1454 36.4785 9.94676Z" fill="white"/>
<path d="M35.3125 5.9375H4.6875C3.4443 5.9375 2.25201 6.43136 1.37294 7.31044C0.49386 8.18951 0 9.3818 0 10.625L0 29.375C0 30.6182 0.49386 31.8105 1.37294 32.6896C2.25201 33.5686 3.4443 34.0625 4.6875 34.0625H35.3125C36.5557 34.0625 37.748 33.5686 38.6271 32.6896C39.5061 31.8105 40 30.6182 40 29.375V10.625C40 9.3818 39.5061 8.18951 38.6271 7.31044C37.748 6.43136 36.5557 5.9375 35.3125 5.9375ZM38.125 29.375C38.125 30.1209 37.8287 30.8363 37.3012 31.3637C36.7738 31.8912 36.0584 32.1875 35.3125 32.1875H4.6875C3.94158 32.1875 3.22621 31.8912 2.69876 31.3637C2.17132 30.8363 1.875 30.1209 1.875 29.375V10.625C1.875 9.87908 2.17132 9.16371 2.69876 8.63626C3.22621 8.10882 3.94158 7.8125 4.6875 7.8125H35.3125C36.0584 7.8125 36.7738 8.10882 37.3012 8.63626C37.8287 9.16371 38.125 9.87908 38.125 10.625V29.375Z" fill="white"/>
</g>
<defs>
<clipPath id="clip0_103_265">
<rect width="40" height="40" fill="white"/>
</clipPath>
</defs>
</svg>
