<svg width="181" height="181" viewBox="0 0 181 181" fill="none" xmlns="http://www.w3.org/2000/svg">
<g clip-path="url(#clip0_172_93)">
<path d="M11.4031 147.153C11.4031 156.565 14.6611 164.529 21.1771 171.045C27.6931 177.561 35.7174 180.879 45.2501 181H101.903V167.787C97.0764 165.977 92.6117 162.84 88.5091 158.375H45.2501C42.1127 158.375 39.4581 157.289 37.2861 155.117C35.1141 152.945 34.0281 150.29 34.0281 147.153C36.5621 137.379 42.1127 129.294 50.6801 122.899C59.2474 116.504 68.7801 113.246 79.2781 113.125C82.0534 113.125 84.7684 113.427 87.4231 114.03C91.8877 108.841 97.1971 105.342 103.351 103.532C104.799 98.8259 107.152 94.6026 110.41 90.8619C113.668 87.1213 117.469 84.2856 121.813 82.3549C123.623 77.5283 124.528 72.7016 124.528 67.8749V45.2499C124.528 32.8213 120.063 22.2026 111.134 13.3939C102.205 4.58527 91.5861 0.120607 79.2781 -5.98273e-05C66.9701 -0.120726 56.2911 4.34394 47.2411 13.3939C38.1911 22.4439 33.7867 33.0626 34.0281 45.2499V67.8749C34.0281 79.8209 38.1911 90.2586 46.5171 99.1879C37.4671 104.256 29.7444 110.953 23.3491 119.279C16.9537 127.605 12.9717 136.896 11.4031 147.153ZM56.6531 67.8749V45.2499C56.6531 39.0959 58.8251 33.7866 63.1691 29.3219C67.5131 24.8573 72.8827 22.6249 79.2781 22.6249C85.6734 22.6249 90.9827 24.8573 95.2061 29.3219C99.4294 33.7866 101.662 39.0959 101.903 45.2499V67.8749C101.903 74.1496 99.6707 79.5193 95.2061 83.9839C90.7414 88.4486 85.4321 90.6206 79.2781 90.4999C73.1241 90.3793 67.7544 88.2073 63.1691 83.9839C58.5837 79.7606 56.4117 74.3909 56.6531 67.8749ZM101.903 135.75C101.903 138.887 102.989 141.602 105.161 143.895C107.333 146.188 109.988 147.274 113.125 147.153H124.528V158.375C124.528 161.512 125.614 164.227 127.786 166.52C129.958 168.813 132.613 169.899 135.75 169.778C138.887 169.657 141.542 168.571 143.714 166.52C145.886 164.469 147.032 161.754 147.153 158.375V147.153H158.375C161.512 147.153 164.167 146.067 166.339 143.895C168.511 141.723 169.657 139.008 169.778 135.75C169.899 132.492 168.752 129.837 166.339 127.786C163.926 125.735 161.271 124.649 158.375 124.528H147.153V113.125C147.153 109.988 146.007 107.333 143.714 105.161C141.421 102.989 138.767 101.903 135.75 101.903C132.733 101.903 130.079 102.989 127.786 105.161C125.493 107.333 124.407 109.988 124.528 113.125V124.528H113.125C109.988 124.528 107.333 125.614 105.161 127.786C102.989 129.958 101.903 132.613 101.903 135.75Z" fill="#858AD4"/>
</g>
<defs>
<clipPath id="clip0_172_93">
<rect width="181" height="181" fill="white"/>
</clipPath>
</defs>
</svg>
