<svg width="48" height="48" viewBox="0 0 48 48" fill="none" xmlns="http://www.w3.org/2000/svg">
<g clip-path="url(#clip0_173_97)">
<path d="M3.02393 39.0239C3.02393 41.5199 3.88793 43.6319 5.61593 45.3599C7.34393 47.0879 9.47193 47.9679 11.9999 47.9999H27.0239V44.4959C25.7439 44.0159 24.5599 43.1839 23.4719 41.9999H11.9999C11.1679 41.9999 10.4639 41.7119 9.88793 41.1359C9.31193 40.5599 9.02393 39.8559 9.02393 39.0239C9.69593 36.4319 11.1679 34.2879 13.4399 32.5919C15.7119 30.8959 18.2399 30.0319 21.0239 29.9999C21.7599 29.9999 22.4799 30.0799 23.1839 30.2399C24.3679 28.8639 25.7759 27.9359 27.4079 27.4559C27.7919 26.2079 28.4159 25.0879 29.2799 24.0959C30.1439 23.1039 31.1519 22.3519 32.3039 21.8399C32.7839 20.5599 33.0239 19.2799 33.0239 17.9999V11.9999C33.0239 8.7039 31.8399 5.8879 29.4719 3.5519C27.1039 1.2159 24.2879 0.0318992 21.0239 -0.000100843C17.7599 -0.0321008 14.9279 1.1519 12.5279 3.5519C10.1279 5.9519 8.95993 8.7679 9.02393 11.9999V17.9999C9.02393 21.1679 10.1279 23.9359 12.3359 26.3039C9.93593 27.6479 7.88793 29.4239 6.19193 31.6319C4.49593 33.8399 3.43993 36.3039 3.02393 39.0239ZM15.0239 17.9999V11.9999C15.0239 10.3679 15.5999 8.9599 16.7519 7.7759C17.9039 6.5919 19.3279 5.9999 21.0239 5.9999C22.7199 5.9999 24.1279 6.5919 25.2479 7.7759C26.3679 8.9599 26.9599 10.3679 27.0239 11.9999V17.9999C27.0239 19.6639 26.4319 21.0879 25.2479 22.2719C24.0639 23.4559 22.6559 24.0319 21.0239 23.9999C19.3919 23.9679 17.9679 23.3919 16.7519 22.2719C15.5359 21.1519 14.9599 19.7279 15.0239 17.9999ZM27.0239 35.9999C27.0239 36.8319 27.3119 37.5519 27.8879 38.1599C28.4639 38.7679 29.1679 39.0559 29.9999 39.0239H33.0239V41.9999C33.0239 42.8319 33.3119 43.5519 33.8879 44.1599C34.4639 44.7679 35.1679 45.0559 35.9999 45.0239C36.8319 44.9919 37.5359 44.7039 38.1119 44.1599C38.6879 43.6159 38.9919 42.8959 39.0239 41.9999V39.0239H41.9999C42.8319 39.0239 43.5359 38.7359 44.1119 38.1599C44.6879 37.5839 44.9919 36.8639 45.0239 35.9999C45.0559 35.1359 44.7519 34.4319 44.1119 33.8879C43.4719 33.3439 42.7679 33.0559 41.9999 33.0239H39.0239V29.9999C39.0239 29.1679 38.7199 28.4639 38.1119 27.8879C37.5039 27.3119 36.7999 27.0239 35.9999 27.0239C35.1999 27.0239 34.4959 27.3119 33.8879 27.8879C33.2799 28.4639 32.9919 29.1679 33.0239 29.9999V33.0239H29.9999C29.1679 33.0239 28.4639 33.3119 27.8879 33.8879C27.3119 34.4639 27.0239 35.1679 27.0239 35.9999Z" fill="#1D1D1D"/>
</g>
<defs>
<clipPath id="clip0_173_97">
<rect width="48" height="48" fill="white"/>
</clipPath>
</defs>
</svg>
