<svg width="27" height="27" viewBox="0 0 27 27" fill="none" xmlns="http://www.w3.org/2000/svg">
<path d="M13.5 13.5C17.2283 13.5 20.25 10.4783 20.25 6.75C20.25 3.02168 17.2283 0 13.5 0C9.77168 0 6.75 3.02168 6.75 6.75C6.75 10.4783 9.77168 13.5 13.5 13.5ZM18.225 15.1875H17.3443C16.1736 15.7254 14.8711 16.0312 13.5 16.0312C12.1289 16.0312 10.8316 15.7254 9.65566 15.1875H8.775C4.86211 15.1875 1.6875 18.3621 1.6875 22.275V24.4688C1.6875 25.8662 2.82129 27 4.21875 27H22.7812C24.1787 27 25.3125 25.8662 25.3125 24.4688V22.275C25.3125 18.3621 22.1379 15.1875 18.225 15.1875Z" fill="white"/>
</svg>
