<svg width="28" height="18" viewBox="0 0 28 18" fill="none" xmlns="http://www.w3.org/2000/svg">
<path d="M26.5237 1.23141C26.3423 1.13834 26.1387 1.09708 25.9354 1.11215C25.7321 1.12722 25.5368 1.19804 25.3711 1.31683L19.3594 5.61011V2.21875C19.3594 1.6303 19.1256 1.06595 18.7095 0.649857C18.2934 0.23376 17.7291 0 17.1406 0H2.71875C2.1303 0 1.56595 0.23376 1.14986 0.649857C0.733761 1.06595 0.5 1.6303 0.5 2.21875L0.5 15.5312C0.5 16.1197 0.733761 16.684 1.14986 17.1001C1.56595 17.5162 2.1303 17.75 2.71875 17.75H17.1406C17.7291 17.75 18.2934 17.5162 18.7095 17.1001C19.1256 16.684 19.3594 16.1197 19.3594 15.5312V12.1399L25.3711 16.4332C25.5586 16.5686 25.7843 16.6412 26.0156 16.6406C26.1922 16.6402 26.3662 16.5984 26.5237 16.5186C26.705 16.4252 26.8571 16.2836 26.9631 16.1094C27.0692 15.9352 27.1252 15.7352 27.125 15.5312V2.21875C27.1252 2.01481 27.0692 1.81475 26.9631 1.64057C26.8571 1.46638 26.705 1.32481 26.5237 1.23141ZM2.71875 15.5312V2.21875H17.1406V15.5312H2.71875ZM24.9062 13.3757L19.3594 9.41305V8.33695L24.9062 4.37427V13.3757Z" fill="#858AD4"/>
</svg>
