<svg width="24" height="24" viewBox="0 0 24 24" fill="none" xmlns="http://www.w3.org/2000/svg">
<path d="M8.25 16C8.25 15.5858 8.58578 15.25 9 15.25C9.41422 15.25 9.75 15.5858 9.75 16C9.75 16.4142 9.41422 16.75 9 16.75C8.58578 16.75 8.25 16.4142 8.25 16Z" fill="#0F0F0F" stroke="black" stroke-width="0.5"/>
<path d="M14.25 16C14.25 15.5858 14.5858 15.25 15 15.25C15.4142 15.25 15.75 15.5858 15.75 16C15.75 16.4142 15.4142 16.75 15 16.75C14.5858 16.75 14.25 16.4142 14.25 16Z" fill="#0F0F0F" stroke="black" stroke-width="0.5"/>
<path d="M11.25 4.73244V4.58824L11.1252 4.51604C10.6015 4.21308 10.25 3.64743 10.25 3C10.25 2.0335 11.0335 1.25 12 1.25C12.9665 1.25 13.75 2.0335 13.75 3C13.75 3.64743 13.3985 4.21308 12.8748 4.51604L12.75 4.58824V4.73244V7V7.25H13H18C19.5188 7.25 20.75 8.48122 20.75 10V20C20.75 21.5188 19.5188 22.75 18 22.75H6C4.48122 22.75 3.25 21.5188 3.25 20V10C3.25 8.48122 4.48122 7.25 6 7.25H11H11.25V7V4.73244ZM7.60558 8.8882L7.53648 8.75H7.38197H6C5.30965 8.75 4.75 9.30965 4.75 10V20C4.75 20.6904 5.30965 21.25 6 21.25H18C18.6904 21.25 19.25 20.6904 19.25 20V10C19.25 9.30965 18.6904 8.75 18 8.75H16.618H16.4635L16.3944 8.8882L14.9472 11.7826C14.6507 12.3755 14.0448 12.75 13.382 12.75H10.618C9.95519 12.75 9.34922 12.3755 9.05279 11.7826L8.82918 11.8944L9.05279 11.7826L7.60558 8.8882ZM13.382 11.25H13.5365L13.6056 11.1118L14.6056 9.1118L14.7865 8.75H14.382H9.61803H9.21353L9.39442 9.1118L10.3944 11.1118L10.4635 11.25H10.618H13.382Z" fill="#0F0F0F" stroke="black" stroke-width="0.5"/>
<path d="M0.25 15C0.25 14.5858 0.585784 14.25 1 14.25C1.41421 14.25 1.75 14.5858 1.75 15V17C1.75 17.4142 1.41421 17.75 1 17.75C0.585784 17.75 0.25 17.4142 0.25 17V15Z" fill="#0F0F0F" stroke="black" stroke-width="0.5"/>
<path d="M22.25 15C22.25 14.5858 22.5858 14.25 23 14.25C23.4142 14.25 23.75 14.5858 23.75 15V17C23.75 17.4142 23.4142 17.75 23 17.75C22.5858 17.75 22.25 17.4142 22.25 17V15Z" fill="#0F0F0F" stroke="black" stroke-width="0.5"/>
</svg>
