<svg width="33" height="33" viewBox="0 0 33 33" fill="none" xmlns="http://www.w3.org/2000/svg">
<path d="M9.625 12.375H23.375M9.625 17.875H23.375M28.875 27.5L24.3041 25.2145C23.9576 25.0412 23.7843 24.9546 23.6027 24.8936C23.4415 24.8394 23.2756 24.8002 23.1072 24.7765C22.9174 24.75 22.7237 24.75 22.3363 24.75H8.525C6.98485 24.75 6.21478 24.75 5.62653 24.4502C5.10907 24.1867 4.68838 23.7659 4.42474 23.2485C4.125 22.6603 4.125 21.8901 4.125 20.35V9.9C4.125 8.35985 4.125 7.58978 4.42474 7.00153C4.68838 6.48407 5.10907 6.06338 5.62653 5.79974C6.21478 5.5 6.98486 5.5 8.525 5.5H24.475C26.0151 5.5 26.7853 5.5 27.3735 5.79974C27.8909 6.06338 28.3117 6.48407 28.5752 7.00153C28.875 7.58978 28.875 8.35986 28.875 9.9V27.5Z" stroke="white" stroke-width="2" stroke-linecap="round" stroke-linejoin="round"/>
</svg>
