<svg width="32" height="32" viewBox="0 0 32 32" fill="none" xmlns="http://www.w3.org/2000/svg">
<path d="M15.9998 21.3334C21.1545 21.3334 25.3332 17.1547 25.3332 12.0001C25.3332 6.84542 21.1545 2.66675 15.9998 2.66675C10.8452 2.66675 6.6665 6.84542 6.6665 12.0001C6.6665 17.1547 10.8452 21.3334 15.9998 21.3334Z" stroke="#1C274C" stroke-width="5"/>
<path opacity="0.5" d="M9.80148 20L8.95232 23.0973C8.11453 26.1531 7.69564 27.6809 8.25463 28.5175C8.45053 28.8105 8.71333 29.0459 9.01829 29.2011C9.88847 29.6441 11.232 28.9441 13.9191 27.544C14.8132 27.0781 15.2603 26.8452 15.7352 26.7945C15.9113 26.7757 16.0887 26.7757 16.2648 26.7945C16.7397 26.8452 17.1868 27.0781 18.0809 27.544C20.768 28.9441 22.1116 29.6441 22.9817 29.2011C23.2867 29.0459 23.5495 28.8105 23.7453 28.5175C24.3044 27.6809 23.8855 26.1531 23.0477 23.0973L22.1985 20" stroke="#1C274C" stroke-width="5" stroke-linecap="round"/>
</svg>
