<svg width="41" height="41" viewBox="0 0 41 41" fill="none" xmlns="http://www.w3.org/2000/svg">
<path fill-rule="evenodd" clip-rule="evenodd" d="M12.4678 18.0337C10.6907 18.3566 9.03922 19.2137 7.74388 20.5091C6.06672 22.1862 5.125 24.4604 5.125 26.832V32.007C5.125 34.13 6.84572 35.8508 8.96875 35.8508C14.3295 35.8508 26.6705 35.8508 32.0312 35.8508C34.1543 35.8508 35.875 34.13 35.875 32.007V26.832C35.875 24.4604 34.9333 22.1862 33.2561 20.5091C31.9608 19.2137 30.3092 18.3566 28.5322 18.0337C29.1318 16.8306 29.4688 15.475 29.4688 14.04C29.4688 9.09057 25.4495 5.07129 20.5 5.07129C15.5505 5.07129 11.5312 9.09057 11.5312 14.04C11.5312 15.475 11.8682 16.8306 12.4678 18.0337ZM26.7781 20.4424C25.1612 22.0299 22.9433 23.0088 20.5 23.0088C18.0567 23.0088 15.8388 22.0299 14.2219 20.4424C14.1706 20.4489 14.1194 20.4514 14.0681 20.4514C12.3756 20.4514 10.7523 21.1241 9.55684 22.3208C8.36016 23.5174 7.6875 25.1408 7.6875 26.832V32.007C7.6875 32.7143 8.2615 33.2883 8.96875 33.2883H32.0312C32.7385 33.2883 33.3125 32.7143 33.3125 32.007V26.832C33.3125 25.1408 32.6398 23.5174 31.4432 22.3208C30.2478 21.1241 28.6244 20.4514 26.9319 20.4514C26.8806 20.4514 26.8294 20.4489 26.7781 20.4424ZM20.5 7.63379C24.0362 7.63379 26.9062 10.5051 26.9062 14.04C26.9062 17.5763 24.0362 20.4463 20.5 20.4463C16.9638 20.4463 14.0938 17.5763 14.0938 14.04C14.0938 10.5051 16.9638 7.63379 20.5 7.63379Z" fill="black"/>
<path fill-rule="evenodd" clip-rule="evenodd" d="M25.625 25.6353H24.3438C23.6365 25.6353 23.0625 26.2093 23.0625 26.9165C23.0625 27.6238 23.6365 28.1978 24.3438 28.1978H25.625V29.479C25.625 30.1863 26.199 30.7603 26.9062 30.7603C27.6135 30.7603 28.1875 30.1863 28.1875 29.479V28.1978H29.4688C30.176 28.1978 30.75 27.6238 30.75 26.9165C30.75 26.2093 30.176 25.6353 29.4688 25.6353H28.1875V24.354C28.1875 23.6468 27.6135 23.0728 26.9062 23.0728C26.199 23.0728 25.625 23.6468 25.625 24.354V25.6353Z" fill="black"/>
</svg>
