<svg width="32" height="32" viewBox="0 0 32 32" fill="none" xmlns="http://www.w3.org/2000/svg">
<g clip-path="url(#clip0_94_391)">
<path d="M10 15H30C30.2652 15 30.5196 15.1054 30.7071 15.2929C30.8946 15.4804 31 15.7348 31 16C31 16.2652 30.8946 16.5196 30.7071 16.7071C30.5196 16.8946 30.2652 17 30 17H10C9.73478 17 9.48043 16.8946 9.29289 16.7071C9.10536 16.5196 9 16.2652 9 16C9 15.7348 9.10536 15.4804 9.29289 15.2929C9.48043 15.1054 9.73478 15 10 15Z" fill="#858AD4"/>
<path d="M10.4138 16L18.7078 24.292C18.8956 24.4798 19.0011 24.7345 19.0011 25C19.0011 25.2656 18.8956 25.5203 18.7078 25.708C18.5201 25.8958 18.2654 26.0013 17.9998 26.0013C17.7343 26.0013 17.4796 25.8958 17.2918 25.708L8.29183 16.708C8.19871 16.6152 8.12482 16.5048 8.07441 16.3833C8.024 16.2618 7.99805 16.1316 7.99805 16C7.99805 15.8685 8.024 15.7383 8.07441 15.6168C8.12482 15.4953 8.19871 15.3849 8.29183 15.292L17.2918 6.29204C17.4796 6.10427 17.7343 5.99878 17.9998 5.99878C18.2654 5.99878 18.5201 6.10427 18.7078 6.29204C18.8956 6.47982 19.0011 6.73449 19.0011 7.00004C19.0011 7.26559 18.8956 7.52027 18.7078 7.70804L10.4138 16Z" fill="#858AD4"/>
</g>
<defs>
<clipPath id="clip0_94_391">
<rect width="32" height="32" fill="white"/>
</clipPath>
</defs>
</svg>
