<svg width="300" height="300" viewBox="0 0 300 300" fill="none" xmlns="http://www.w3.org/2000/svg">
<path d="M150 275C219.035 275 275 219.035 275 150C275 80.9644 219.035 25 150 25C80.9644 25 25 80.9644 25 150C25 169.996 29.6952 188.895 38.0432 205.656C40.2617 210.11 41.0001 215.201 39.714 220.007L32.2689 247.834C29.0369 259.912 40.0876 270.962 52.1669 267.731L79.9924 260.286C84.7991 259 89.8901 259.739 94.3441 261.956C111.105 270.305 130.004 275 150 275Z" stroke="#626DFF" stroke-width="15"/>
<path d="M100 150H100.112M149.887 150H150M199.887 150H200" stroke="#626DFF" stroke-opacity="0.5" stroke-width="30" stroke-linecap="round" stroke-linejoin="round"/>
</svg>
