<svg width="31" height="31" viewBox="0 0 31 31" fill="none" xmlns="http://www.w3.org/2000/svg">
<g clip-path="url(#clip0_103_249)">
<path d="M10.3464 28.5065C9.21538 28.5065 8.11267 28.2918 7.06877 27.8683C5.98723 27.4296 5.01738 26.7858 4.186 25.9547C3.35461 25.1237 2.71085 24.1535 2.27244 23.072C1.84897 22.0281 1.63428 20.9254 1.63428 19.7943C1.63428 18.6633 1.84897 17.5603 2.27244 16.5164C2.71085 15.4349 3.35492 14.465 4.186 13.6336L4.18817 13.6315L15.6679 2.20675C16.2598 1.61526 16.9505 1.15663 17.7209 0.844234C18.4642 0.542733 19.2493 0.389648 20.0545 0.389648C20.8594 0.389648 21.6445 0.542733 22.3881 0.844234C23.1585 1.15663 23.8489 1.61526 24.4411 2.20675C25.0329 2.79855 25.4912 3.4893 25.8039 4.2597C26.1054 5.00334 26.2582 5.78836 26.2582 6.59361C26.2582 7.39886 26.1054 8.18389 25.8039 8.92753C25.4912 9.69793 25.0329 10.3884 24.4411 10.9805L12.9865 22.4344C12.6302 22.7907 12.2148 23.0664 11.7506 23.2549C11.3032 23.4363 10.8305 23.5284 10.3461 23.5284C9.86163 23.5284 9.38931 23.4363 8.94157 23.2549C8.47765 23.0667 8.06196 22.7907 7.70569 22.4344C7.34943 22.0785 7.07375 21.6628 6.88551 21.1989C6.70473 20.7511 6.61263 20.2788 6.61263 19.7943C6.61263 19.3099 6.70473 18.8373 6.88613 18.3898C7.07406 17.9259 7.35005 17.5099 7.70631 17.1536L18.267 6.5933C18.753 6.10729 19.5411 6.10729 20.0271 6.5933C20.5131 7.07931 20.5131 7.86745 20.0271 8.35346L9.46647 18.9138C9.23125 19.1493 9.10181 19.462 9.10181 19.7943C9.10181 20.1266 9.23125 20.439 9.46647 20.6743C9.70139 20.9095 10.0141 21.0389 10.3464 21.0389C10.6787 21.0389 10.9914 20.9095 11.2263 20.6743L22.6809 9.22001C23.3825 8.51837 23.769 7.58555 23.769 6.59361C23.769 5.60168 23.3825 4.66854 22.6809 3.96722C21.9796 3.26527 21.0468 2.87883 20.0545 2.87883C19.0623 2.87883 18.1291 3.26527 17.4281 3.96691L17.4259 3.96909L5.94522 15.3947C5.35124 15.989 4.89137 16.6813 4.57866 17.452C4.27685 18.1972 4.12345 18.9857 4.12345 19.7943C4.12345 20.603 4.27685 21.3912 4.57897 22.1363C4.89199 22.9077 5.35155 23.6 5.94647 24.1943C6.54076 24.7886 7.23337 25.2488 8.00408 25.5615C8.74959 25.8639 9.53773 26.0173 10.3464 26.0173C11.1551 26.0173 11.9435 25.8639 12.6887 25.5615C13.46 25.2488 14.152 24.7889 14.7466 24.1943L26.1875 12.7534C26.6735 12.2674 27.4617 12.2674 27.9474 12.7534C28.4334 13.2394 28.4334 14.0275 27.9474 14.5136L16.5065 25.9544C15.6754 26.7855 14.7056 27.4293 13.6237 27.868C12.5804 28.2918 11.4774 28.5065 10.3464 28.5065Z" fill="white"/>
</g>
<defs>
<clipPath id="clip0_103_249">
<rect width="29.8701" height="29.8701" fill="white" transform="translate(0.389648 0.389648)"/>
</clipPath>
</defs>
</svg>
